<svg xmlns="http://www.w3.org/2000/svg" width="24" height="24" viewBox="0 0 24 24" fill="none">
    <path d="M12.7822 5.51071C12.6542 5.53998 12.5391 5.55727 12.4398 5.567C12.446 5.39651 12.4641 5.18578 12.5063 4.95086C12.6183 4.32626 12.8961 3.55083 13.5537 2.89326C14.2392 2.20771 14.9516 1.85948 15.4876 1.68208C15.62 1.63828 15.7415 1.60493 15.849 1.57956C15.8411 1.7538 15.8218 1.96254 15.7812 2.19261C15.6629 2.86392 15.3681 3.69482 14.6692 4.39369C13.9462 5.11666 13.2639 5.40054 12.7822 5.51071Z" fill="white" stroke="white"/>
    <path d="M12.1245 7.33961C11.0188 7.33205 10.3396 6.37735 8.4566 6.37735C6.76225 6.37735 5.06373 7.47053 4.34151 8.52829C3.62264 9.58112 3 10.7358 3 13.0792C3 15.4226 4.12832 19.4528 6.90285 22.1811C7.378 22.6483 8.00698 22.9996 8.72454 23.0213C10.0151 23.0604 10.8076 22.0943 12.4377 22.0943C14.0679 22.0943 14.5585 23.0213 16.0302 23.0213C16.6994 23.0213 17.4626 22.7165 18.2038 21.9283C19.1547 20.917 20.3347 18.9909 20.9358 17.1434C20.9358 17.1434 17.9258 15.9809 17.9622 12.6302C17.9924 9.85282 20.3509 8.48677 20.3509 8.48677C20.3509 8.48677 18.9735 6.29054 16.0453 6.29054C14.0226 6.30567 13.1169 7.34641 12.1245 7.33961Z" fill="white"/>
</svg>