<svg xmlns="http://www.w3.org/2000/svg" width="22" height="22" viewBox="0 0 22 22" fill="none">
    <path d="M16.9676 7.56252C17.4259 7.56252 17.7926 7.19586 17.7926 6.73752V2.47502C17.7926 2.01669 17.4259 1.65002 16.9676 1.65002C16.5092 1.65002 16.1426 2.01669 16.1426 2.47502V6.73752C16.1426 7.18669 16.5184 7.56252 16.9676 7.56252Z" fill="#1A1E25"/>
    <path d="M10.9998 14.4375C10.5415 14.4375 10.1748 14.8042 10.1748 15.2625V19.525C10.1748 19.9833 10.5415 20.35 10.9998 20.35C11.4581 20.35 11.8248 19.9833 11.8248 19.525V15.2625C11.8248 14.8133 11.4581 14.4375 10.9998 14.4375Z" fill="#1A1E25"/>
    <path d="M5.03252 7.56252C5.49085 7.56252 5.85752 7.19586 5.85752 6.73752V2.47502C5.85752 2.01669 5.49085 1.65002 5.03252 1.65002C4.57419 1.65002 4.20752 2.01669 4.20752 2.47502V6.73752C4.20752 7.18669 4.57419 7.56252 5.03252 7.56252Z" fill="#1A1E25"/>
    <path d="M6.73744 9.32251H3.32744C2.86911 9.32251 2.50244 9.68918 2.50244 10.1475C2.50244 10.6058 2.86911 10.9725 3.32744 10.9725H4.20744V19.525C4.20744 19.9833 4.57411 20.35 5.03244 20.35C5.49077 20.35 5.85744 19.9833 5.85744 19.525V10.9725H6.73744C7.19577 10.9725 7.56244 10.6058 7.56244 10.1475C7.56244 9.68918 7.18661 9.32251 6.73744 9.32251Z" fill="#1A1E25"/>
    <path d="M18.6725 9.32251H15.2625C14.8042 9.32251 14.4375 9.68918 14.4375 10.1475C14.4375 10.6058 14.8042 10.9725 15.2625 10.9725H16.1425V19.525C16.1425 19.9833 16.5092 20.35 16.9675 20.35C17.4258 20.35 17.7925 19.9833 17.7925 19.525V10.9725H18.6725C19.1308 10.9725 19.4975 10.6058 19.4975 10.1475C19.4975 9.68918 19.1308 9.32251 18.6725 9.32251Z" fill="#1A1E25"/>
    <path d="M12.7052 11.0275H11.8252V2.47502C11.8252 2.01669 11.4585 1.65002 11.0002 1.65002C10.5419 1.65002 10.1752 2.01669 10.1752 2.47502V11.0275H9.29522C8.83688 11.0275 8.47021 11.3942 8.47021 11.8525C8.47021 12.3109 8.83688 12.6775 9.29522 12.6775H12.7052C13.1635 12.6775 13.5302 12.3109 13.5302 11.8525C13.5302 11.3942 13.1635 11.0275 12.7052 11.0275Z" fill="#1A1E25"/>
</svg>